Lexend-LooseExpandedExtraBold.ufo
<glyph name="numbersign" format="2">
  <advance width="1034"/>
  <unicode hex="0023"/>
  <outline>
    <contour>
      <point x="543.0" y="0.0" type="line"/>
      <point x="732.0" y="0.0" type="line"/>
      <point x="852.0" y="700.0" type="line"/>
      <point x="663.0" y="700.0" type="line"/>
    </contour>
    <contour>
      <point x="119.0" y="118.0" type="line"/>
      <point x="888.0" y="118.0" type="line"/>
      <point x="888.0" y="296.0" type="line"/>
      <point x="119.0" y="296.0" type="line"/>
    </contour>
    <contour>
      <point x="214.0" y="0.0" type="line"/>
      <point x="403.0" y="0.0" type="line"/>
      <point x="523.0" y="700.0" type="line"/>
      <point x="334.0" y="700.0" type="line"/>
    </contour>
    <contour>
      <point x="157.0" y="398.0" type="line"/>
      <point x="925.0" y="398.0" type="line"/>
      <point x="925.0" y="576.0" type="line"/>
      <point x="157.0" y="576.0" type="line"/>
    </contour>
  </outline>
</glyph>
<glyph name="percent" format="2">
  <advance width="1384"/>
  <unicode hex="0025"/>
  <outline>
    <contour>
      <point x="342.0" y="0.0" type="line"/>
      <point x="523.0" y="0.0" type="line"/>
      <point x="1012.0" y="700.0" type="line"/>
      <point x="824.0" y="700.0" type="line"/>
    </contour>
    <contour>
      <point x="313.0" y="269.0" type="curve" smooth="yes"/>
      <point x="442.333" y="269.0"/>
      <point x="534.0" y="371.33399999999995"/>
      <point x="534.0" y="498.0" type="curve" smooth="yes"/>
      <point x="534.0" y="627.6659999999999"/>
      <point x="447.66600000000005" y="728.0"/>
      <point x="313.0" y="728.0" type="curve" smooth="yes"/>
      <point x="176.0" y="728.0"/>
      <point x="90.0" y="627.6659999999999"/>
      <point x="90.0" y="498.0" type="curve" smooth="yes"/>
      <point x="90.0" y="373.0"/>
      <point x="181.0" y="269.0"/>
    </contour>
    <contour>
      <point x="313.0" y="407.0" type="curve" smooth="yes"/>
      <point x="278.33299999999997" y="407.0"/>
      <point x="262.0" y="447.0"/>
      <point x="262.0" y="498.0" type="curve" smooth="yes"/>
      <point x="262.0" y="547.3340000000001"/>
      <point x="277.334" y="590.0"/>
      <point x="313.0" y="590.0" type="curve" smooth="yes"/>
      <point x="347.333" y="590.0"/>
      <point x="362.0" y="549.0"/>
      <point x="362.0" y="498.0" type="curve" smooth="yes"/>
      <point x="362.0" y="451.33399999999995"/>
      <point x="348.66599999999994" y="407.0"/>
    </contour>
    <contour>
      <point x="1072.0" y="-17.0" type="curve" smooth="yes"/>
      <point x="1201.333" y="-17.0"/>
      <point x="1294.0" y="85.334"/>
      <point x="1294.0" y="212.0" type="curve" smooth="yes"/>
      <point x="1294.0" y="341.66600000000005"/>
      <point x="1207.6659999999997" y="442.0"/>
      <point x="1073.0" y="442.0" type="curve" smooth="yes"/>
      <point x="936.0" y="442.0"/>
      <point x="850.0" y="341.66600000000005"/>
      <point x="850.0" y="212.0" type="curve" smooth="yes"/>
      <point x="850.0" y="85.667"/>
      <point x="938.6659999999999" y="-17.0"/>
    </contour>
    <contour>
      <point x="1073.0" y="122.0" type="curve" smooth="yes"/>
      <point x="1038.333" y="122.0"/>
      <point x="1022.0" y="161.0"/>
      <point x="1022.0" y="212.0" type="curve" smooth="yes"/>
      <point x="1022.0" y="260.0"/>
      <point x="1037.667" y="304.0"/>
      <point x="1072.0" y="304.0" type="curve" smooth="yes"/>
      <point x="1107.666" y="304.0"/>
      <point x="1121.0" y="264.33400000000006"/>
      <point x="1121.0" y="212.0" type="curve" smooth="yes"/>
      <point x="1121.0" y="164.0"/>
      <point x="1108.666" y="122.0"/>
    </contour>
  </outline>
</glyph>
<glyph name="period" format="2">
  <advance width="598"/>
  <unicode hex="002E"/>
  <outline>
    <contour>
      <point x="299.0" y="-11.0" type="curve" smooth="yes"/>
      <point x="387.334" y="-11.0"/>
      <point x="433.0" y="37.333"/>
      <point x="433.0" y="89.0" type="curve" smooth="yes"/>
      <point x="433.0" y="150.0"/>
      <point x="388.66700000000003" y="189.0"/>
      <point x="299.0" y="189.0" type="curve" smooth="yes"/>
      <point x="210.666" y="189.0"/>
      <point x="165.0" y="140.667"/>
      <point x="165.0" y="89.0" type="curve" smooth="yes"/>
      <point x="165.0" y="28.0"/>
      <point x="209.333" y="-11.0"/>
    </contour>
  </outline>
</glyph>
<glyph name="zero" format="2">
  <advance width="943"/>
  <unicode hex="0030"/>
  <outline>
    <contour>
      <point x="476.0" y="-10.0" type="curve" smooth="yes"/>
      <point x="726.667" y="-10.0"/>
      <point x="854.0" y="132.666"/>
      <point x="854.0" y="350.0" type="curve" smooth="yes"/>
      <point x="854.0" y="567.3340000000001"/>
      <point x="726.667" y="710.0"/>
      <point x="476.0" y="710.0" type="curve" smooth="yes"/>
      <point x="220.333" y="710.0"/>
      <point x="89.0" y="567.3340000000001"/>
      <point x="89.0" y="350.0" type="curve" smooth="yes"/>
      <point x="89.0" y="132.666"/>
      <point x="220.333" y="-10.0"/>
    </contour>
    <contour>
      <point x="476.0" y="168.0" type="curve" smooth="yes"/>
      <point x="361.66600000000005" y="168.0"/>
      <point x="293.0" y="232.334"/>
      <point x="293.0" y="350.0" type="curve" smooth="yes"/>
      <point x="293.0" y="474.33299999999997"/>
      <point x="361.66600000000005" y="542.0"/>
      <point x="476.0" y="542.0" type="curve" smooth="yes"/>
      <point x="585.3340000000001" y="542.0"/>
      <point x="649.0" y="474.33299999999997"/>
      <point x="649.0" y="350.0" type="curve" smooth="yes"/>
      <point x="649.0" y="232.334"/>
      <point x="585.3340000000001" y="168.0"/>
    </contour>
  </outline>
</glyph>
<glyph name="three" format="2">
  <advance width="872"/>
  <unicode hex="0033"/>
  <outline>
    <contour>
      <point x="434.0" y="-10.0" type="curve" smooth="yes"/>
      <point x="619.6669999999999" y="-10.0"/>
      <point x="767.0" y="87.667"/>
      <point x="767.0" y="237.0" type="curve" smooth="yes"/>
      <point x="767.0" y="358.33399999999995"/>
      <point x="638.667" y="451.0"/>
      <point x="509.0" y="451.0" type="curve" smooth="yes"/>
      <point x="464.0" y="451.0"/>
      <point x="425.9999999999999" y="447.0"/>
      <point x="409.0" y="442.0" type="curve"/>
      <point x="459.0" y="349.0" type="line"/>
      <point x="745.0" y="590.0" type="line"/>
      <point x="704.0" y="710.0" type="line"/>
      <point x="152.0" y="710.0" type="line"/>
      <point x="152.0" y="535.0" type="line"/>
      <point x="539.0" y="525.0" type="line"/>
      <point x="504.0" y="556.0" type="line"/>
      <point x="318.0" y="400.0" type="line"/>
      <point x="369.0" y="290.0" type="line"/>
      <point x="377.019" y="295.293"/>
      <point x="404.97399999999993" y="302.0"/>
      <point x="440.0" y="302.0" type="curve" smooth="yes"/>
      <point x="492.94100000000003" y="302.0"/>
      <point x="571" y="290"/>
      <point x="571.0" y="236.0" type="curve" smooth="yes"/>
      <point x="571.0" y="185.0"/>
      <point x="511.0" y="165.0"/>
      <point x="428.0" y="165.0" type="curve" smooth="yes"/>
      <point x="336" y="165"/>
      <point x="272.334" y="225.334"/>
      <point x="246.0" y="267.0" type="curve"/>
      <point x="95.0" y="156.0" type="line"/>
      <point x="165.333" y="55.667"/>
      <point x="276.66700000000003" y="-10.0"/>
    </contour>
  </outline>
</glyph>
<glyph name="six" format="2">
  <advance width="831"/>
  <unicode hex="0036"/>
  <outline>
    <contour>
      <point x="412.0" y="0.0" type="curve" smooth="yes"/>
      <point x="605.0" y="0.0"/>
      <point x="736.0" y="120.333"/>
      <point x="736.0" y="260.0" type="curve" smooth="yes"/>
      <point x="736.0" y="392.0"/>
      <point x="618.0" y="489.0"/>
      <point x="475.0" y="489.0" type="curve" smooth="yes"/>
      <point x="333.66600000000005" y="489.0"/>
      <point x="186.666" y="375.66600000000005"/>
      <point x="171.0" y="273.0" type="curve"/>
      <point x="249.0" y="260.0" type="line"/>
      <point x="287.0" y="361.667"/>
      <point x="337" y="409"/>
      <point x="390.0" y="464.0" type="curve" smooth="yes"/>
      <point x="615.0" y="700.0" type="line"/>
      <point x="611.0" y="710.0" type="line"/>
      <point x="392.0" y="710.0" type="line"/>
      <point x="250.0" y="551.0" type="line" smooth="yes"/>
      <point x="184" y="477"/>
      <point x="100.0" y="416.667"/>
      <point x="100.0" y="258.0" type="curve" smooth="yes"/>
      <point x="100.0" y="112.334"/>
      <point x="246.334" y="0.0"/>
    </contour>
    <contour>
      <point x="416.0" y="170.0" type="curve" smooth="yes"/>
      <point x="336.0" y="170.0"/>
      <point x="287.0" y="202.0"/>
      <point x="287.0" y="255.0" type="curve" smooth="yes"/>
      <point x="287.0" y="307.0"/>
      <point x="336.0" y="339.0"/>
      <point x="416.0" y="339.0" type="curve" smooth="yes"/>
      <point x="502.0" y="339.0"/>
      <point x="555.0" y="307.0"/>
      <point x="555.0" y="255.0" type="curve" smooth="yes"/>
      <point x="555.0" y="202.0"/>
      <point x="502.0" y="170.0"/>
    </contour>
  </outline>
</glyph>
<glyph name="eight" format="2">
  <advance width="847"/>
  <unicode hex="0038"/>
  <outline>
    <contour>
      <point x="423.0" y="-3.0" type="curve" smooth="yes"/>
      <point x="614.6669999999999" y="-3.0"/>
      <point x="750.0" y="92.333"/>
      <point x="750.0" y="222.0" type="curve" smooth="yes"/>
      <point x="750.0" y="344.828"/>
      <point x="637" y="395"/>
      <point x="536.0" y="411.0" type="curve"/>
      <point x="549.0" y="340.0" type="line"/>
      <point x="605" y="367"/>
      <point x="707.0" y="420.54400000000004"/>
      <point x="707.0" y="524.0" type="curve" smooth="yes"/>
      <point x="707.0" y="639.0"/>
      <point x="581.9999999999999" y="720.0"/>
      <point x="423.0" y="720.0" type="curve" smooth="yes"/>
      <point x="264.0" y="720.0"/>
      <point x="138.0" y="639.0"/>
      <point x="138.0" y="524.0" type="curve" smooth="yes"/>
      <point x="138.0" y="428.54400000000004"/>
      <point x="236" y="368"/>
      <point x="296.0" y="340.0" type="curve"/>
      <point x="312.0" y="411.0" type="line"/>
      <point x="222" y="397"/>
      <point x="97.0" y="359.422"/>
      <point x="97.0" y="222.0" type="curve" smooth="yes"/>
      <point x="97.0" y="92.333"/>
      <point x="232.334" y="-3.0"/>
    </contour>
    <contour>
      <point x="423.0" y="156.0" type="curve" smooth="yes"/>
      <point x="343.0" y="156.0"/>
      <point x="293.0" y="185.0"/>
      <point x="293.0" y="232.0" type="curve" smooth="yes"/>
      <point x="293.0" y="271.0"/>
      <point x="343.0" y="305.0"/>
      <point x="423.0" y="305.0" type="curve" smooth="yes"/>
      <point x="502.0" y="305.0"/>
      <point x="551.0" y="271.0"/>
      <point x="551.0" y="232.0" type="curve" smooth="yes"/>
      <point x="551.0" y="185.0"/>
      <point x="502.0" y="156.0"/>
    </contour>
    <contour>
      <point x="423.0" y="452.0" type="curve" smooth="yes"/>
      <point x="358.0" y="452.0"/>
      <point x="318.0" y="479.0"/>
      <point x="318.0" y="523.0" type="curve" smooth="yes"/>
      <point x="318.0" y="559.0"/>
      <point x="358.0" y="581.0"/>
      <point x="423.0" y="581.0" type="curve" smooth="yes"/>
      <point x="487.0" y="581.0"/>
      <point x="526.0" y="559.0"/>
      <point x="526.0" y="523.0" type="curve" smooth="yes"/>
      <point x="526.0" y="479.0"/>
      <point x="487.0" y="452.0"/>
    </contour>
  </outline>
</glyph>
<glyph name="C" format="2">
  <advance width="1007"/>
  <unicode hex="0043"/>
  <anchor x="563.0" y="0" name="bottom"/>
  <anchor x="568.0" y="700.0" name="top"/>
  <outline>
    <contour>
      <point x="574.0" y="-10.0" type="curve" smooth="yes"/>
      <point x="719.6660000000002" y="-10.0"/>
      <point x="850.667" y="56.667"/>
      <point x="913.0" y="105.0" type="curve"/>
      <point x="812.0" y="269.0" type="line"/>
      <point x="765.333" y="235.667"/>
      <point x="698.3330000000001" y="180.0"/>
      <point x="586.0" y="180.0" type="curve" smooth="yes"/>
      <point x="463.0" y="180.0"/>
      <point x="342.0" y="237.0"/>
      <point x="342.0" y="352.0" type="curve" smooth="yes"/>
      <point x="342.0" y="471.667"/>
      <point x="456.667" y="527.0"/>
      <point x="559.0" y="527.0" type="curve" smooth="yes"/>
      <point x="672.6660000000002" y="527.0"/>
      <point x="742.333" y="485.99999999999994"/>
      <point x="785.0" y="451.0" type="curve"/>
      <point x="906.0" y="618.0" type="line"/>
      <point x="825.0" y="676.333"/>
      <point x="701.9999999999998" y="720.0"/>
      <point x="571.0" y="720.0" type="curve" smooth="yes"/>
      <point x="316.33399999999995" y="720.0"/>
      <point x="120.0" y="573.333"/>
      <point x="120.0" y="355.0" type="curve" smooth="yes"/>
      <point x="120.0" y="136.667"/>
      <point x="318.334" y="-10.0"/>
    </contour>
  </outline>
</glyph>
<glyph name="F" format="2">
  <advance width="924"/>
  <unicode hex="0046"/>
  <anchor x="459.0" y="0" name="bottom"/>
  <anchor x="459.0" y="700.0" name="top"/>
  <outline>
    <contour>
      <point x="164.0" y="0.0" type="line"/>
      <point x="380.0" y="0.0" type="line"/>
      <point x="380.0" y="700.0" type="line"/>
      <point x="164.0" y="700.0" type="line"/>
    </contour>
    <contour>
      <point x="255.0" y="236.0" type="line"/>
      <point x="750.0" y="236.0" type="line"/>
      <point x="750.0" y="406.0" type="line"/>
      <point x="255.0" y="406.0" type="line"/>
    </contour>
    <contour>
      <point x="269.0" y="516.0" type="line"/>
      <point x="787.0" y="516.0" type="line"/>
      <point x="787.0" y="700.0" type="line"/>
      <point x="269.0" y="700.0" type="line"/>
    </contour>
  </outline>
</glyph>
<glyph name="G" format="2">
  <advance width="1109"/>
  <unicode hex="0047"/>
  <anchor x="557.0" y="0" name="bottom"/>
  <anchor x="574.0" y="700.0" name="top"/>
  <outline>
    <contour>
      <point x="547.0" y="-10.0" type="curve" smooth="yes"/>
      <point x="816.4639999999999" y="-10.0"/>
      <point x="992.0" y="95.739"/>
      <point x="992.0" y="303.0" type="curve" smooth="yes"/>
      <point x="992.0" y="310.0"/>
      <point x="990.667" y="377.0"/>
      <point x="988.0" y="408.0" type="curve"/>
      <point x="554.0" y="408.0" type="line"/>
      <point x="554.0" y="258.0" type="line"/>
      <point x="817.0" y="258.0" type="line"/>
      <point x="788.0" y="314.0" type="line"/>
      <point x="789.0" y="292.0" type="line" smooth="yes"/>
      <point x="796.0" y="220.0"/>
      <point x="700.667" y="174.0"/>
      <point x="575.0" y="174.0" type="curve" smooth="yes"/>
      <point x="454.667" y="174.0"/>
      <point x="347.0" y="212.667"/>
      <point x="347.0" y="355.0" type="curve" smooth="yes"/>
      <point x="347.0" y="460.66600000000005"/>
      <point x="446.0" y="536.0"/>
      <point x="577.0" y="536.0" type="curve" smooth="yes"/>
      <point x="681.0" y="536.0"/>
      <point x="752.0" y="500.00000000000006"/>
      <point x="804.0" y="465.0" type="curve"/>
      <point x="932.0" y="607.0" type="line"/>
      <point x="865.667" y="661.333"/>
      <point x="745.6659999999999" y="720.0"/>
      <point x="580.0" y="720.0" type="curve" smooth="yes"/>
      <point x="308.33299999999997" y="720.0"/>
      <point x="120.0" y="566.667"/>
      <point x="120.0" y="355.0" type="curve" smooth="yes"/>
      <point x="120.0" y="108.667"/>
      <point x="290.0" y="-10.0"/>
    </contour>
  </outline>
</glyph>
<glyph name="M" format="2">
  <advance width="1200"/>
  <unicode hex="004D"/>
  <anchor x="600.0" y="0" name="bottom"/>
  <anchor x="600.0" y="700.0" name="top"/>
  <outline>
    <contour>
      <point x="164.0" y="0.0" type="line"/>
      <point x="372.0" y="0.0" type="line"/>
      <point x="372.0" y="177.0" type="line" smooth="yes"/>
      <point x="372.0" y="288.0"/>
      <point x="368.0" y="381.0"/>
      <point x="352.0" y="482.0" type="curve"/>
      <point x="327.0" y="419.0" type="line"/>
      <point x="567.0" y="147.0" type="line"/>
      <point x="633.0" y="147.0" type="line"/>
      <point x="869.0" y="415.0" type="line"/>
      <point x="848.0" y="482.0" type="line"/>
      <point x="832.0" y="381.0"/>
      <point x="828.0" y="288.0"/>
      <point x="828.0" y="177.0" type="curve" smooth="yes"/>
      <point x="828.0" y="0.0" type="line"/>
      <point x="1036.0" y="0.0" type="line"/>
      <point x="1036.0" y="700.0" type="line"/>
      <point x="850.0" y="700.0" type="line"/>
      <point x="531.0" y="305.0" type="line"/>
      <point x="669.0" y="305.0" type="line"/>
      <point x="350.0" y="700.0" type="line"/>
      <point x="164.0" y="700.0" type="line"/>
    </contour>
  </outline>
</glyph>
<glyph name="R" format="2">
  <advance width="1023"/>
  <unicode hex="0052"/>
  <anchor x="503.0" y="0" name="bottom"/>
  <anchor x="493.0" y="690.0" name="top"/>
  <outline>
    <contour>
      <point x="164.0" y="0.0" type="line"/>
      <point x="366.0" y="0.0" type="line"/>
      <point x="366.0" y="228.0" type="line"/>
      <point x="583.0" y="228.0" type="line" smooth="yes"/>
      <point x="741.3340000000001" y="228.0"/>
      <point x="860.0" y="327.33399999999995"/>
      <point x="860.0" y="485.0" type="curve" smooth="yes"/>
      <point x="860.0" y="607.6659999999999"/>
      <point x="752.667" y="700.0"/>
      <point x="603.0" y="700.0" type="curve" smooth="yes"/>
      <point x="164.0" y="700.0" type="line"/>
    </contour>
    <contour>
      <point x="657.0" y="0.0" type="line"/>
      <point x="902.0" y="0.0" type="line"/>
      <point x="644.0" y="341.0" type="line"/>
      <point x="419.0" y="316.0" type="line"/>
    </contour>
    <contour>
      <point x="366.0" y="378.0" type="line"/>
      <point x="366.0" y="530.0" type="line"/>
      <point x="553.0" y="530.0" type="line" smooth="yes"/>
      <point x="607.6659999999999" y="530.0"/>
      <point x="645.0" y="502.66700000000003"/>
      <point x="645.0" y="467.0" type="curve" smooth="yes"/>
      <point x="645.0" y="414.667"/>
      <point x="595.6659999999999" y="378.0"/>
      <point x="529.0" y="378.0" type="curve" smooth="yes"/>
    </contour>
  </outline>
</glyph>
<glyph name="U" format="2">
  <advance width="1088"/>
  <unicode hex="0055"/>
  <anchor x="544.0" y="0" name="bottom"/>
  <anchor x="739.0" y="0" name="ogonek"/>
  <anchor x="544.0" y="700.0" name="top"/>
  <anchor x="986.0" y="700.0" name="topright"/>
  <outline>
    <contour>
      <point x="544.0" y="-6.0" type="curve" smooth="yes"/>
      <point x="774.6659999999999" y="-6.0"/>
      <point x="926.0" y="137.667"/>
      <point x="926.0" y="335.0" type="curve" smooth="yes"/>
      <point x="926.0" y="700.0" type="line"/>
      <point x="713.0" y="700.0" type="line"/>
      <point x="713.0" y="339.0" type="line" smooth="yes"/>
      <point x="713.0" y="242.666"/>
      <point x="644.333" y="179.0"/>
      <point x="544.0" y="179.0" type="curve" smooth="yes"/>
      <point x="448.0" y="179.0"/>
      <point x="380.0" y="242.666"/>
      <point x="380.0" y="339.0" type="curve" smooth="yes"/>
      <point x="380.0" y="700.0" type="line"/>
      <point x="162.0" y="700.0" type="line"/>
      <point x="162.0" y="335.0" type="line" smooth="yes"/>
      <point x="162.0" y="137.667"/>
      <point x="313.33399999999995" y="-6.0"/>
    </contour>
  </outline>
</glyph>
<glyph name="bracketright" format="2">
  <advance width="676"/>
  <unicode hex="005D"/>
  <outline>
    <contour>
      <point x="59.0" y="-190.0" type="line"/>
      <point x="526.0" y="-190.0" type="line"/>
      <point x="526.0" y="700.0" type="line"/>
      <point x="59.0" y="700.0" type="line"/>
      <point x="59.0" y="505.0" type="line"/>
      <point x="317.0" y="505.0" type="line"/>
      <point x="307.0" y="517.0" type="line"/>
      <point x="307.0" y="-3.0" type="line"/>
      <point x="313.0" y="5.0" type="line"/>
      <point x="59.0" y="5.0" type="line"/>
    </contour>
  </outline>
</glyph>
<glyph name="e" format="2">
  <advance width="931"/>
  <unicode hex="0065"/>
  <anchor x="488.0" y="0" name="bottom"/>
  <anchor x="739.0" y="10.0" name="ogonek"/>
  <anchor x="461.0" y="535.0" name="top"/>
  <outline>
    <contour>
      <point x="489.0" y="-10.0" type="curve" smooth="yes"/>
      <point x="599" y="-10.0"/>
      <point x="694" y="12"/>
      <point x="780.0" y="63.0" type="curve"/>
      <point x="694.0" y="184.0" type="line"/>
      <point x="673.0" y="175"/>
      <point x="618.0" y="151.0"/>
      <point x="522.0" y="151.0" type="curve" smooth="yes"/>
      <point x="379" y="151.0"/>
      <point x="295.0" y="213"/>
      <point x="295.0" y="284.0" type="curve" smooth="yes"/>
      <point x="295.0" y="360"/>
      <point x="377" y="393.0"/>
      <point x="465.0" y="393.0" type="curve" smooth="yes"/>
      <point x="548" y="393.0"/>
      <point x="617" y="360"/>
      <point x="621.0" y="319.0" type="curve"/>
      <point x="621.0" y="301.0" type="line"/>
      <point x="640.0" y="336.0" type="line"/>
      <point x="219.0" y="336.0" type="line"/>
      <point x="242.0" y="223.0" type="line"/>
      <point x="801.0" y="223.0" type="line"/>
      <point x="802.0" y="268.0" type="line" smooth="yes"/>
      <point x="806" y="433"/>
      <point x="657" y="546"/>
      <point x="461.0" y="546.0" type="curve" smooth="yes"/>
      <point x="273" y="546"/>
      <point x="110.0" y="439.0"/>
      <point x="110.0" y="268.0" type="curve" smooth="yes"/>
      <point x="110.0" y="108"/>
      <point x="256.0" y="-10.0"/>
    </contour>
  </outline>
</glyph>
<glyph name="f" format="2">
  <advance width="730"/>
  <unicode hex="0066"/>
  <anchor x="367.0" y="0" name="bottom"/>
  <anchor x="367.0" y="740.0" name="top"/>
  <outline>
    <contour>
      <point x="226.0" y="0.0" type="line"/>
      <point x="247.0" y="0.0"/>
      <point x="278.5" y="0.0"/>
      <point x="322.5" y="0.0" type="curve" smooth="yes"/>
      <point x="419.0" y="0.0" type="line"/>
      <point x="419.0" y="508.0" type="line" smooth="yes"/>
      <point x="419.0" y="557.0"/>
      <point x="453" y="588.0"/>
      <point x="507" y="588.0" type="curve" smooth="yes"/>
      <point x="550" y="588"/>
      <point x="593.0" y="570.0"/>
      <point x="614.0" y="562.0" type="curve"/>
      <point x="666.0" y="704.0" type="line"/>
      <point x="626.334" y="721.6659999999999"/>
      <point x="568" y="745"/>
      <point x="484.0" y="745.0" type="curve" smooth="yes"/>
      <point x="325.0" y="745.0"/>
      <point x="226.0" y="655.0"/>
      <point x="226.0" y="508.0" type="curve" smooth="yes"/>
    </contour>
    <contour>
      <point x="113.0" y="346.0" type="line"/>
      <point x="627.0" y="346.0" type="line"/>
      <point x="627.0" y="506.0" type="line"/>
      <point x="113.0" y="506.0" type="line"/>
    </contour>
  </outline>
</glyph>
<glyph name="g" format="2">
  <advance width="1036"/>
  <unicode hex="0067"/>
  <anchor x="499.0" y="-230.0" name="bottom"/>
  <anchor x="499.0" y="535.0" name="top"/>
  <outline>
    <contour>
      <point x="511.0" y="-230.0" type="curve" smooth="yes"/>
      <point x="682.667" y="-230.0"/>
      <point x="843.0" y="-126.333"/>
      <point x="843.0" y="92.0" type="curve" smooth="yes"/>
      <point x="843.0" y="535.0" type="line"/>
      <point x="655.0" y="535.0" type="line"/>
      <point x="644.0" y="417.0" type="line"/>
      <point x="685.0" y="426.0" type="line"/>
      <point x="681.0" y="513.6659999999999"/>
      <point x="498.0" y="546.0"/>
      <point x="422.0" y="546.0" type="curve" smooth="yes"/>
      <point x="242.334" y="546.0"/>
      <point x="120.0" y="435.0"/>
      <point x="120.0" y="272.0" type="curve" smooth="yes"/>
      <point x="120.0" y="114.333"/>
      <point x="234.0" y="15.0"/>
      <point x="407.0" y="15.0" type="curve" smooth="yes"/>
      <point x="548.0" y="15.0"/>
      <point x="664.3330000000001" y="67.333"/>
      <point x="684.0" y="131.0" type="curve"/>
      <point x="639.0" y="135.0" type="line"/>
      <point x="639.0" y="95.0" type="line" smooth="yes"/>
      <point x="639.0" y="-12.849000000000004"/>
      <point x="575.0" y="-66.0"/>
      <point x="475.0" y="-66.0" type="curve" smooth="yes"/>
      <point x="369.66700000000003" y="-66.0"/>
      <point x="310.0" y="-34.333"/>
      <point x="262.0" y="-16.0" type="curve"/>
      <point x="195.0" y="-158.0" type="line"/>
      <point x="261.66700000000003" y="-196.334"/>
      <point x="368.66700000000003" y="-230.0"/>
    </contour>
    <contour>
      <point x="488.0" y="160.0" type="curve" smooth="yes"/>
      <point x="383.66700000000003" y="160.0"/>
      <point x="319.0" y="201.0"/>
      <point x="319.0" y="270.0" type="curve" smooth="yes"/>
      <point x="319.0" y="339.0"/>
      <point x="383.66700000000003" y="381.0"/>
      <point x="488.0" y="381.0" type="curve" smooth="yes"/>
      <point x="587.0" y="381.0"/>
      <point x="644.0" y="339.667"/>
      <point x="644.0" y="270.0" type="curve" smooth="yes"/>
      <point x="644.0" y="200.333"/>
      <point x="585.6660000000002" y="160.0"/>
    </contour>
  </outline>
</glyph>
<glyph name="n" format="2">
  <advance width="1085"/>
  <unicode hex="006E"/>
  <anchor x="541.0" y="0" name="bottom"/>
  <anchor x="561.0" y="535.0" name="top"/>
  <outline>
    <contour>
      <point x="218.0" y="0.0" type="line"/>
      <point x="218.0" y="0.0"/>
      <point x="251.667" y="0.0"/>
      <point x="320.0" y="0.0" type="curve" smooth="yes"/>
      <point x="421.0" y="0.0" type="line"/>
      <point x="421.0" y="278.0" type="line" smooth="yes"/>
      <point x="421.0" y="312.667"/>
      <point x="472.66700000000003" y="379.0"/>
      <point x="549.0" y="379.0" type="curve" smooth="yes"/>
      <point x="606.0" y="375.0"/>
      <point x="670.0" y="333.333"/>
      <point x="670.0" y="293.0" type="curve" smooth="yes"/>
      <point x="670.0" y="0.0" type="line"/>
      <point x="873.0" y="0.0" type="line"/>
      <point x="873.0" y="320.0" type="line" smooth="yes"/>
      <point x="873.0" y="437.33399999999995"/>
      <point x="781.0" y="546.0"/>
      <point x="616.0" y="546.0" type="curve" smooth="yes"/>
      <point x="482.333" y="546.0"/>
      <point x="399.33299999999997" y="466.667"/>
      <point x="353.0" y="385.0" type="curve"/>
      <point x="416.0" y="387.0" type="line"/>
      <point x="406.0" y="535.0" type="line"/>
      <point x="218.0" y="535.0" type="line"/>
    </contour>
  </outline>
</glyph>
<glyph name="t" format="2">
  <advance width="774"/>
  <unicode hex="0074"/>
  <anchor x="372.0" y="0" name="bottom"/>
  <anchor x="372.0" y="268.0" name="center"/>
  <anchor x="354.0" y="612.0" name="top"/>
  <anchor x="472.0" y="860.0" name="topright"/>
  <outline>
    <contour>
      <point x="255.0" y="0.0" type="line"/>
      <point x="458.0" y="0.0" type="line"/>
      <point x="458.0" y="700.0" type="line"/>
      <point x="255.0" y="700.0" type="line"/>
    </contour>
    <contour>
      <point x="112.0" y="365.0" type="line"/>
      <point x="626.0" y="365.0" type="line"/>
      <point x="626.0" y="535.0" type="line"/>
      <point x="112.0" y="535.0" type="line"/>
    </contour>
  </outline>
</glyph>
<glyph name="u" format="2">
  <advance width="1045"/>
  <unicode hex="0075"/>
  <anchor x="523.0" y="0" name="bottom"/>
  <anchor x="805.0" y="0" name="ogonek"/>
  <anchor x="523.0" y="535.0" name="top"/>
  <anchor x="897.0" y="535.0" name="topright"/>
  <outline>
    <contour>
      <point x="427.0" y="-11.0" type="curve" smooth="yes"/>
      <point x="566.6669999999999" y="-11.0"/>
      <point x="660.667" y="57.667"/>
      <point x="685.0" y="120.0" type="curve"/>
      <point x="647.0" y="108.0" type="line"/>
      <point x="659.0" y="0.0" type="line"/>
      <point x="845.0" y="0.0" type="line"/>
      <point x="845.0" y="535.0" type="line"/>
      <point x="642.0" y="535.0" type="line"/>
      <point x="642.0" y="287.0" type="line" smooth="yes"/>
      <point x="642.0" y="211.0"/>
      <point x="577.0" y="167.0"/>
      <point x="504.0" y="167.0" type="curve" smooth="yes"/>
      <point x="420.33299999999997" y="167.0"/>
      <point x="391.0" y="204.0"/>
      <point x="391.0" y="292.0" type="curve" smooth="yes"/>
      <point x="391.0" y="535.0" type="line"/>
      <point x="188.0" y="535.0" type="line"/>
      <point x="188.0" y="265.0" type="line" smooth="yes"/>
      <point x="188.0" y="86.666"/>
      <point x="278.66700000000003" y="-11.0"/>
    </contour>
  </outline>
</glyph>
<glyph name="v" format="2">
  <advance width="925"/>
  <unicode hex="0076"/>
  <anchor x="463.0" y="0" name="bottom"/>
  <anchor x="463.0" y="535.0" name="top"/>
  <outline>
    <contour>
      <point x="366.0" y="0.0" type="line"/>
      <point x="550.0" y="0.0" type="line"/>
      <point x="857.0" y="535.0" type="line"/>
      <point x="621.0" y="535.0" type="line"/>
      <point x="431.0" y="134.0" type="line"/>
      <point x="495.0" y="134.0" type="line"/>
      <point x="304.0" y="535.0" type="line"/>
      <point x="68.0" y="535.0" type="line"/>
    </contour>
  </outline>
</glyph>
<glyph name="y" format="2">
  <advance width="1011"/>
  <unicode hex="0079"/>
  <anchor x="729.0" y="0" name="bottom"/>
  <anchor x="506.0" y="535.0" name="top"/>
  <outline>
    <contour>
      <point x="249.0" y="-230.0" type="line"/>
      <point x="458.0" y="-230.0" type="line"/>
      <point x="588.0" y="-6.0" type="line"/>
      <point x="911.0" y="535.0" type="line"/>
      <point x="677.0" y="535.0" type="line"/>
      <point x="529.0" y="243.0" type="line" smooth="yes"/>
      <point x="517" y="220"/>
      <point x="494.0" y="172.0"/>
      <point x="477.0" y="134.0" type="curve"/>
      <point x="541.0" y="134.0" type="line"/>
      <point x="518.0" y="185.0"/>
      <point x="499" y="223"/>
      <point x="489.0" y="243.0" type="curve" smooth="yes"/>
      <point x="340.0" y="535.0" type="line"/>
      <point x="100.0" y="535.0" type="line"/>
      <point x="413.0" y="5.0" type="line"/>
      <point x="432.0" y="83.0" type="line"/>
    </contour>
  </outline>
</glyph>
<glyph name="bar" format="2">
  <advance width="649"/>
  <unicode hex="007C"/>
  <outline>
    <contour>
      <point x="218.0" y="-193.0" type="line"/>
      <point x="431.0" y="-193.0" type="line"/>
      <point x="431.0" y="740.0" type="line"/>
      <point x="218.0" y="740.0" type="line"/>
    </contour>
  </outline>
</glyph>
<glyph name="sterling" format="2">
  <advance width="989"/>
  <unicode hex="00A3"/>
  <outline>
    <contour>
      <point x="284.0" y="53.0" type="line"/>
      <point x="383.00000000000006" y="100.667"/>
      <point x="443.0" y="152.333"/>
      <point x="443.0" y="232.0" type="curve" smooth="yes"/>
      <point x="443.0" y="257.667"/>
      <point x="435.0" y="298.333"/>
      <point x="416.0" y="354.0" type="curve" smooth="yes"/>
      <point x="402.0" y="399.0"/>
      <point x="394.0" y="426.0"/>
      <point x="394.0" y="466.0" type="curve" smooth="yes"/>
      <point x="394.0" y="513.0"/>
      <point x="442.0" y="542.0"/>
      <point x="520.0" y="542.0" type="curve" smooth="yes"/>
      <point x="578.0" y="542.0"/>
      <point x="623.0" y="523.0"/>
      <point x="654.0" y="487.0" type="curve"/>
      <point x="809.0" y="605.0" type="line"/>
      <point x="767.9999999999998" y="668.667"/>
      <point x="675.3340000000001" y="720.0"/>
      <point x="530.0" y="720.0" type="curve" smooth="yes"/>
      <point x="322.0" y="720.0"/>
      <point x="194.0" y="624.6659999999999"/>
      <point x="194.0" y="487.0" type="curve" smooth="yes"/>
      <point x="194.0" y="442.0"/>
      <point x="208.0" y="398.0"/>
      <point x="223.0" y="351.0" type="curve" smooth="yes"/>
      <point x="224.333" y="346.333"/>
      <point x="265.0" y="244.667"/>
      <point x="265.0" y="192.0" type="curve" smooth="yes"/>
      <point x="265.0" y="146.666"/>
      <point x="230.334" y="95.0"/>
      <point x="192.0" y="74.0" type="curve"/>
    </contour>
    <contour>
      <point x="696.0" y="-21.0" type="curve" smooth="yes"/>
      <point x="746.6660000000002" y="-21.0"/>
      <point x="823.6659999999999" y="10.0"/>
      <point x="874.0" y="67.0" type="curve"/>
      <point x="786.0" y="218.0" type="line"/>
      <point x="759.6669999999999" y="193.0"/>
      <point x="718.3340000000001" y="163.0"/>
      <point x="684.0" y="163.0" type="curve" smooth="yes"/>
      <point x="622.0" y="163.0"/>
      <point x="569.0" y="178.0"/>
      <point x="514.0" y="194.0" type="curve" smooth="yes"/>
      <point x="455.333" y="211.0"/>
      <point x="391.66700000000003" y="230.0"/>
      <point x="327.0" y="230.0" type="curve" smooth="yes"/>
      <point x="238.0" y="230.0"/>
      <point x="165.0" y="196.667"/>
      <point x="104.0" y="146.0" type="curve"/>
      <point x="174.0" y="-16.0" type="line"/>
      <point x="205.667" y="10.0"/>
      <point x="252.667" y="46.0"/>
      <point x="310.0" y="46.0" type="curve" smooth="yes"/>
      <point x="370.0" y="46.0"/>
      <point x="426.0" y="28.0"/>
      <point x="493.0" y="12.0" type="curve" smooth="yes"/>
      <point x="556.0" y="-4.0"/>
      <point x="621.0" y="-21.0"/>
    </contour>
    <contour>
      <point x="134.0" y="272.0" type="line"/>
      <point x="712.0" y="272.0" type="line"/>
      <point x="712.0" y="389.0" type="line"/>
      <point x="134.0" y="389.0" type="line"/>
    </contour>
  </outline>
</glyph>
<glyph name="yen" format="2">
  <advance width="1010"/>
  <unicode hex="00A5"/>
  <outline>
    <contour>
      <point x="406.0" y="0.0" type="line"/>
      <point x="624.0" y="0.0" type="line"/>
      <point x="624.0" y="321.0" type="line"/>
      <point x="619.0" y="263.0" type="line"/>
      <point x="960.0" y="700.0" type="line"/>
      <point x="716.0" y="700.0" type="line"/>
      <point x="450.0" y="347.0" type="line"/>
      <point x="583.0" y="347.0" type="line"/>
      <point x="310.0" y="700.0" type="line"/>
      <point x="50.0" y="700.0" type="line"/>
      <point x="426.0" y="236.0" type="line"/>
      <point x="406.0" y="313.0" type="line"/>
    </contour>
    <contour>
      <point x="249.0" y="133.0" type="line"/>
      <point x="781.0" y="133.0" type="line"/>
      <point x="781.0" y="208.0" type="line"/>
      <point x="249.0" y="208.0" type="line"/>
    </contour>
    <contour>
      <point x="249.0" y="258.0" type="line"/>
      <point x="781.0" y="258.0" type="line"/>
      <point x="781.0" y="333.0" type="line"/>
      <point x="249.0" y="333.0" type="line"/>
    </contour>
  </outline>
</glyph>
<glyph name="AE" format="2">
  <advance width="1606"/>
  <unicode hex="00C6"/>
  <anchor x="804.0" y="0" name="bottom"/>
  <anchor x="1075.0" y="700.0" name="top"/>
  <outline>
    <contour>
      <point x="67.0" y="0.0" type="line"/>
      <point x="328.0" y="0.0" type="line"/>
      <point x="829.0" y="563.0" type="line"/>
      <point x="799.0" y="575.0" type="line"/>
      <point x="799.0" y="311.0" type="line"/>
      <point x="577.0" y="311.0" type="line"/>
      <point x="435.0" y="135.0" type="line"/>
      <point x="799.0" y="135.0" type="line"/>
      <point x="799.0" y="0.0" type="line"/>
      <point x="1474.0" y="0.0" type="line"/>
      <point x="1474.0" y="186.0" type="line"/>
      <point x="1013.0" y="186.0" type="line"/>
      <point x="1013.0" y="257.0" type="line"/>
      <point x="1429.0" y="257.0" type="line"/>
      <point x="1429.0" y="431.0" type="line"/>
      <point x="1013.0" y="431.0" type="line"/>
      <point x="1013.0" y="514.0" type="line"/>
      <point x="1474.0" y="514.0" type="line"/>
      <point x="1474.0" y="700.0" type="line"/>
      <point x="695.0" y="700.0" type="line"/>
    </contour>
  </outline>
</glyph>
<glyph name="eth" format="2">
  <advance width="944"/>
  <unicode hex="00F0"/>
  <outline>
    <contour>
      <point x="465.0" y="-7.0" type="curve" smooth="yes"/>
      <point x="671.2130000000001" y="-7.0"/>
      <point x="824.0" y="107.736"/>
      <point x="824.0" y="295.0" type="curve" smooth="yes"/>
      <point x="824.0" y="490.68899999999996"/>
      <point x="617.796" y="684.716"/>
      <point x="481.0" y="750.0" type="curve"/>
      <point x="419.0" y="642.0" type="line"/>
      <point x="512.6669999999999" y="565.0"/>
      <point x="605.3330000000001" y="440.0"/>
      <point x="604.0" y="335.0" type="curve"/>
      <point x="688.0" y="348.0" type="line"/>
      <point x="666" y="435.0"/>
      <point x="603.0" y="508.0"/>
      <point x="455.0" y="508.0" type="curve" smooth="yes"/>
      <point x="268.0" y="508.0"/>
      <point x="120.0" y="394.667"/>
      <point x="120.0" y="252.0" type="curve" smooth="yes"/>
      <point x="120.0" y="108.334"/>
      <point x="240.87" y="-7.0"/>
    </contour>
    <contour>
      <point x="467.0" y="149.0" type="curve" smooth="yes"/>
      <point x="380.0" y="149.0"/>
      <point x="315.0" y="197.0"/>
      <point x="315.0" y="262.0" type="curve" smooth="yes"/>
      <point x="315.0" y="325.0"/>
      <point x="376.0" y="372.0"/>
      <point x="457.0" y="372.0" type="curve" smooth="yes"/>
      <point x="554.0" y="372.0"/>
      <point x="627.0" y="325.0"/>
      <point x="627.0" y="262.0" type="curve" smooth="yes"/>
      <point x="627.0" y="197.0"/>
      <point x="559.0" y="149.0"/>
    </contour>
    <contour>
      <point x="376" y="529" type="line"/>
      <point x="596" y="576" type="line"/>
      <point x="639" y="607" type="line"/>
      <point x="751" y="620" type="line"/>
      <point x="729" y="685" type="line"/>
      <point x="584" y="663" type="line"/>
      <point x="527" y="628" type="line"/>
      <point x="359" y="593" type="line"/>
    </contour>
  </outline>
</glyph>
<glyph name="divide" format="2">
  <advance width="877"/>
  <unicode hex="00F7"/>
  <outline>
    <contour>
      <point x="108.0" y="188.0" type="line"/>
      <point x="770.0" y="188.0" type="line"/>
      <point x="770.0" y="363.0" type="line"/>
      <point x="108.0" y="363.0" type="line"/>
    </contour>
    <contour>
      <point x="439.0" y="-52.0" type="curve" smooth="yes"/>
      <point x="524.171" y="-52.0"/>
      <point x="609.0" y="-27.667"/>
      <point x="609.0" y="49.0" type="curve" smooth="yes"/>
      <point x="609.0" y="125.0"/>
      <point x="530.392" y="148.0"/>
      <point x="439.0" y="148.0" type="curve" smooth="yes"/>
      <point x="353.829" y="148.0"/>
      <point x="270.0" y="123.667"/>
      <point x="270.0" y="47.0" type="curve" smooth="yes"/>
      <point x="270.0" y="-29.0"/>
      <point x="347.608" y="-52.0"/>
    </contour>
    <contour>
      <point x="439.0" y="403.0" type="curve" smooth="yes"/>
      <point x="525.5039999999999" y="403.0"/>
      <point x="609.0" y="427.0"/>
      <point x="609.0" y="505.0" type="curve" smooth="yes"/>
      <point x="609.0" y="581.0"/>
      <point x="530.392" y="603.0"/>
      <point x="439.0" y="603.0" type="curve" smooth="yes"/>
      <point x="353.829" y="603.0"/>
      <point x="270.0" y="579.667"/>
      <point x="270.0" y="503.0" type="curve" smooth="yes"/>
      <point x="270.0" y="425.667"/>
      <point x="347.608" y="403.0"/>
    </contour>
  </outline>
</glyph>
<glyph name="oslash" format="2">
  <advance width="1001"/>
  <unicode hex="00F8"/>
  <anchor x="500.0" y="535.0" name="top"/>
  <anchor x="501.0" y="0" name="bottom"/>
  <anchor x="501.0" y="268.0" name="center"/>
  <anchor x="842.0" y="10.0" name="ogonek"/>
  <anchor x="891.0" y="535.0" name="topright"/>
  <outline>
    <contour>
      <point x="217.0" y="-15.0" type="line"/>
      <point x="835.0" y="502.0" type="line"/>
      <point x="778.0" y="562.0" type="line"/>
      <point x="160.0" y="43.0" type="line"/>
    </contour>
    <component base="o" xOffset="1"/>
  </outline>
</glyph>
<glyph name="oe" format="2">
  <advance width="1506"/>
  <unicode hex="0153"/>
  <anchor x="793.0" y="0" name="bottom"/>
  <anchor x="796.0" y="530.0" name="top"/>
  <outline>
    <contour>
      <point x="501.0" y="-10.0" type="curve" smooth="yes"/>
      <point x="633.0" y="-10.0"/>
      <point x="738.0" y="26.0"/>
      <point x="791.0" y="96.0" type="curve"/>
      <point x="761.0" y="96.0" type="line"/>
      <point x="824.0" y="27.0"/>
      <point x="930.0" y="-10.0"/>
      <point x="1064.0" y="-10.0" type="curve" smooth="yes"/>
      <point x="1174.0" y="-10.0"/>
      <point x="1269.0" y="12.0"/>
      <point x="1355.0" y="63.0" type="curve"/>
      <point x="1269.0" y="184.0" type="line"/>
      <point x="1234.0" y="168.0"/>
      <point x="1176.0" y="151.0"/>
      <point x="1086.0" y="151.0" type="curve" smooth="yes"/>
      <point x="952" y="151"/>
      <point x="870.0" y="204.0"/>
      <point x="870.0" y="285.0" type="curve" smooth="yes"/>
      <point x="870.0" y="351.0"/>
      <point x="936" y="393"/>
      <point x="1047.0" y="393.0" type="curve" smooth="yes"/>
      <point x="1137.0" y="393.0"/>
      <point x="1197.0" y="360.0"/>
      <point x="1197.0" y="305.0" type="curve" smooth="yes"/>
      <point x="1197.0" y="293.0" type="line"/>
      <point x="1241.0" y="336.0" type="line"/>
      <point x="839.0" y="336.0" type="line"/>
      <point x="850.0" y="223.0" type="line"/>
      <point x="1376.0" y="223.0" type="line"/>
      <point x="1377.0" y="268.0" type="line" smooth="yes"/>
      <point x="1381" y="433"/>
      <point x="1232.0" y="546.0"/>
      <point x="1042.0" y="547.0" type="curve" smooth="yes"/>
      <point x="925.0" y="546.0"/>
      <point x="817.0" y="513.0"/>
      <point x="767.0" y="443.0" type="curve"/>
      <point x="799.0" y="444.0" type="line"/>
      <point x="736.0" y="510.0"/>
      <point x="632.0" y="546.0"/>
      <point x="501.0" y="546.0" type="curve" smooth="yes"/>
      <point x="275" y="546.0"/>
      <point x="120.0" y="431.0"/>
      <point x="120.0" y="268.0" type="curve" smooth="yes"/>
      <point x="120.0" y="105.0"/>
      <point x="275" y="-10.0"/>
    </contour>
    <contour>
      <point x="501.0" y="160.0" type="curve" smooth="yes"/>
      <point x="404" y="160.0"/>
      <point x="326" y="204.0"/>
      <point x="325.0" y="268.0" type="curve" smooth="yes"/>
      <point x="326" y="334"/>
      <point x="404" y="377.0"/>
      <point x="501.0" y="377.0" type="curve" smooth="yes"/>
      <point x="597.0" y="377.0"/>
      <point x="677" y="333.0"/>
      <point x="675.0" y="265.0" type="curve" smooth="yes"/>
      <point x="672" y="195.0"/>
      <point x="588.0" y="160.0"/>
    </contour>
  </outline>
</glyph>
<glyph name="uhorn" format="2">
  <advance width="1045"/>
  <unicode hex="01B0"/>
  <anchor x="523.0" y="0" name="bottom"/>
  <anchor x="523.0" y="535.0" name="top"/>
  <outline>
    <contour>
      <point x="427.0" y="-11.0" type="curve" smooth="yes"/>
      <point x="548.0" y="-11.0"/>
      <point x="630.0" y="36.0"/>
      <point x="668.0" y="82.0" type="curve"/>
      <point x="647.0" y="112.0" type="line"/>
      <point x="659.0" y="0.0" type="line"/>
      <point x="845.0" y="0.0" type="line"/>
      <point x="845.0" y="465.0" type="line"/>
      <point x="800.0" y="449.0" type="line"/>
      <point x="926.0" y="425.0"/>
      <point x="976.0" y="533.0"/>
      <point x="976.0" y="649.0" type="curve"/>
      <point x="824.0" y="649.0" type="line"/>
      <point x="824.0" y="560.0"/>
      <point x="811.0" y="535.0"/>
      <point x="642.0" y="535.0" type="curve"/>
      <point x="642.0" y="287.0" type="line" smooth="yes"/>
      <point x="642.0" y="211.0"/>
      <point x="577.0" y="167.0"/>
      <point x="504.0" y="167.0" type="curve" smooth="yes"/>
      <point x="420.33299999999997" y="167.0"/>
      <point x="391.0" y="204.0"/>
      <point x="391.0" y="292.0" type="curve" smooth="yes"/>
      <point x="391.0" y="535.0" type="line"/>
      <point x="188.0" y="535.0" type="line"/>
      <point x="188.0" y="265.0" type="line" smooth="yes"/>
      <point x="188.0" y="86.666"/>
      <point x="278.66700000000003" y="-11.0"/>
    </contour>
  </outline>
</glyph>
<glyph name="jdotless" format="2">
  <advance width="599"/>
  <unicode hex="0237"/>
  <anchor x="338.0" y="-230.0" name="bottom"/>
  <anchor x="346.0" y="535.0" name="top"/>
  <outline>
    <contour>
      <point x="114.0" y="-219.0" type="line"/>
      <point x="321.0" y="-219.0"/>
      <point x="443.0" y="-109.501"/>
      <point x="443.0" y="153.0" type="curve" smooth="yes"/>
      <point x="443.0" y="535.0" type="line"/>
      <point x="240.0" y="535.0" type="line"/>
      <point x="240.0" y="201.0" type="line" smooth="yes"/>
      <point x="240.0" y="23.104"/>
      <point x="197.0" y="-49.0"/>
      <point x="37.0" y="-49.0" type="curve"/>
    </contour>
  </outline>
</glyph>
<glyph name="hookabovecomb" format="2">
  <unicode hex="0309"/>
  <anchor x="250.0" y="525.0" name="_top"/>
  <anchor x="250.0" y="750.0" name="top"/>
  <outline>
    <contour>
      <point x="223.0" y="580.0" type="curve"/>
      <point x="306.0" y="597.0" type="line"/>
      <point x="304.0" y="602.0"/>
      <point x="303.0" y="607.0"/>
      <point x="303.0" y="611.0" type="curve" smooth="yes"/>
      <point x="303.0" y="624.0"/>
      <point x="323.0" y="639.0"/>
      <point x="343.0" y="653.0" type="curve" smooth="yes"/>
      <point x="365.0" y="670.0"/>
      <point x="391.0" y="691.0"/>
      <point x="391.0" y="742.0" type="curve" smooth="yes"/>
      <point x="391.0" y="807.0"/>
      <point x="333.0" y="843.0"/>
      <point x="255.0" y="843.0" type="curve" smooth="yes"/>
      <point x="194.0" y="843.0"/>
      <point x="139.0" y="825.0"/>
      <point x="109.0" y="809.0" type="curve"/>
      <point x="138.0" y="709.0" type="line"/>
      <point x="172.0" y="722.0"/>
      <point x="203.0" y="733.0"/>
      <point x="234.0" y="733.0" type="curve" smooth="yes"/>
      <point x="253.0" y="733.0"/>
      <point x="265.0" y="726.0"/>
      <point x="265.0" y="714.0" type="curve" smooth="yes"/>
      <point x="265.0" y="698.0"/>
      <point x="250.0" y="690.0"/>
      <point x="235.0" y="679.0" type="curve" smooth="yes"/>
      <point x="208.0" y="660.0"/>
      <point x="201.0" y="646.0"/>
      <point x="201.0" y="626.0" type="curve" smooth="yes"/>
      <point x="201.0" y="607.0"/>
      <point x="212.0" y="592.0"/>
    </contour>
  </outline>
</glyph>
<glyph name="cedillacomb" format="2">
  <unicode hex="0327"/>
  <anchor x="260.0" y="0" name="_bottom"/>
  <anchor x="251.0" y="-247.0" name="bottom"/>
  <outline>
    <contour>
      <point x="146.0" y="-247.0" type="line"/>
      <point x="237.0" y="-248.0"/>
      <point x="366.0" y="-234.0"/>
      <point x="366.0" y="-139.0" type="curve" smooth="yes"/>
      <point x="366.0" y="-79.0"/>
      <point x="319.0" y="-43.0"/>
      <point x="261.0" y="-40.0" type="curve"/>
      <point x="309.0" y="24.0" type="line"/>
      <point x="210.0" y="24.0" type="line"/>
      <point x="146.0" y="-70.0" type="line"/>
      <point x="164.0" y="-96.0" type="line"/>
      <point x="204.0" y="-96.0"/>
      <point x="230.0" y="-109.0"/>
      <point x="230.0" y="-132.0" type="curve" smooth="yes"/>
      <point x="230.0" y="-167.0"/>
      <point x="182.0" y="-160.0"/>
      <point x="135.0" y="-161.0" type="curve"/>
    </contour>
  </outline>
</glyph>
<glyph name="ogonekcomb" format="2">
  <unicode hex="0328"/>
  <anchor x="343.0" y="0" name="_ogonek"/>
  <outline>
    <contour>
      <point x="250.0" y="-219.0" type="curve" smooth="yes"/>
      <point x="303.0" y="-219.0"/>
      <point x="358.0" y="-167.0"/>
      <point x="379.0" y="-132.0" type="curve"/>
      <point x="299.0" y="-73.0" type="line"/>
      <point x="291.0" y="-86.0"/>
      <point x="285.0" y="-96.0"/>
      <point x="270.0" y="-96.0" type="curve" smooth="yes"/>
      <point x="254.0" y="-96.0"/>
      <point x="247.0" y="-87.0"/>
      <point x="247.0" y="-74.0" type="curve" smooth="yes"/>
      <point x="247.0" y="-38.0"/>
      <point x="296.0" y="-11.0"/>
      <point x="343.0" y="0.0" type="curve"/>
      <point x="288.0" y="60.0" type="line"/>
      <point x="205.0" y="39.0"/>
      <point x="121.0" y="-17.0"/>
      <point x="121.0" y="-102.0" type="curve" smooth="yes"/>
      <point x="121.0" y="-172.0"/>
      <point x="178.0" y="-219.0"/>
    </contour>
  </outline>
</glyph>
<glyph name="pi" format="2">
  <advance width="1049"/>
  <unicode hex="03C0"/>
  <outline>
    <contour>
      <point x="249.0" y="0.0" type="line"/>
      <point x="443.0" y="0.0" type="line"/>
      <point x="443.0" y="447.0" type="line"/>
      <point x="430.0" y="365.0" type="line"/>
      <point x="631.0" y="365.0" type="line"/>
      <point x="621.0" y="469.0" type="line"/>
      <point x="621.0" y="0.0" type="line"/>
      <point x="815.0" y="0.0" type="line"/>
      <point x="815.0" y="447.0" type="line"/>
      <point x="806.0" y="365.0" type="line"/>
      <point x="959.0" y="365.0" type="line"/>
      <point x="959.0" y="535.0" type="line"/>
      <point x="105.0" y="535.0" type="line"/>
      <point x="105.0" y="365.0" type="line"/>
      <point x="266.0" y="365.0" type="line"/>
      <point x="249.0" y="485.0" type="line"/>
    </contour>
  </outline>
</glyph>
<glyph name="endash" format="2">
  <advance width="859"/>
  <unicode hex="2013"/>
  <outline>
    <contour>
      <point x="132.0" y="213.0" type="line"/>
      <point x="727.0" y="213.0" type="line"/>
      <point x="727.0" y="372.0" type="line"/>
      <point x="132.0" y="372.0" type="line"/>
    </contour>
  </outline>
</glyph>
<glyph name="quoteright" format="2">
  <advance width="502"/>
  <unicode hex="2019"/>
  <outline>
    <contour>
      <point x="192.0" y="310.0" type="line"/>
      <point x="304.0" y="352.0"/>
      <point x="412.0" y="469.0"/>
      <point x="412.0" y="575.0" type="curve" smooth="yes"/>
      <point x="412.0" y="667.0"/>
      <point x="339.0" y="739.0"/>
      <point x="263.0" y="739.0" type="curve" smooth="yes"/>
      <point x="194.0" y="739.0"/>
      <point x="138.0" y="707.0"/>
      <point x="138.0" y="642.0" type="curve" smooth="yes"/>
      <point x="138.0" y="588.0"/>
      <point x="177.0" y="562.0"/>
      <point x="209.0" y="548.0" type="curve" smooth="yes"/>
      <point x="243.0" y="531.0"/>
      <point x="246.0" y="518.0"/>
      <point x="246.0" y="500.0" type="curve" smooth="yes"/>
      <point x="246.0" y="467.0"/>
      <point x="201.0" y="419.0"/>
      <point x="130.0" y="383.0" type="curve"/>
    </contour>
  </outline>
</glyph>
<glyph name="dagger" format="2">
  <advance width="597"/>
  <unicode hex="2020"/>
  <outline>
    <contour>
      <point x="199.0" y="196.0" type="line"/>
      <point x="399.0" y="196.0" type="line"/>
      <point x="399.0" y="721.0" type="line"/>
      <point x="199.0" y="721.0" type="line"/>
    </contour>
    <contour>
      <point x="114.0" y="409.0" type="line"/>
      <point x="484.0" y="409.0" type="line"/>
      <point x="484.0" y="579.0" type="line"/>
      <point x="114.0" y="579.0" type="line"/>
    </contour>
  </outline>
</glyph>
<glyph name="franc" format="2">
  <advance width="924"/>
  <unicode hex="20A3"/>
  <anchor x="459.0" y="0" name="bottom"/>
  <anchor x="459.0" y="700.0" name="top"/>
  <outline>
    <contour>
      <point x="73.0" y="56.0" type="line"/>
      <point x="581.0" y="56.0" type="line"/>
      <point x="581.0" y="192.0" type="line"/>
      <point x="73.0" y="192.0" type="line"/>
    </contour>
    <component base="F"/>
  </outline>
</glyph>
<glyph name="naira" format="2">
  <advance width="1224"/>
  <unicode hex="20A6"/>
  <anchor x="621.0" y="0" name="bottom"/>
  <anchor x="621.0" y="700.0" name="top"/>
  <outline>
    <contour>
      <point x="88.0" y="301.0" type="line"/>
      <point x="250.0" y="301.0" type="line"/>
      <point x="280.0" y="331.0" type="line"/>
      <point x="927.0" y="331.0" type="line"/>
      <point x="968.0" y="301.0" type="line"/>
      <point x="1136.0" y="301.0" type="line"/>
      <point x="1136.0" y="383.0" type="line"/>
      <point x="973.0" y="383.0" type="line"/>
      <point x="931.0" y="368.0" type="line"/>
      <point x="286.0" y="368.0" type="line"/>
      <point x="252.0" y="383.0" type="line"/>
      <point x="88.0" y="383.0" type="line"/>
    </contour>
    <component base="N" xOffset="48"/>
  </outline>
</glyph>
<glyph name="dong" format="2">
  <advance width="936"/>
  <unicode hex="20AB"/>
  <outline>
    <contour>
      <point x="371.0" y="146.0" type="curve" smooth="yes"/>
      <point x="492.0" y="146.0"/>
      <point x="580.0" y="213.0"/>
      <point x="580.0" y="252.0" type="curve"/>
      <point x="535.0" y="266.0" type="line"/>
      <point x="535.0" y="156.0" type="line"/>
      <point x="732.0" y="156.0" type="line"/>
      <point x="732.0" y="714.0" type="line"/>
      <point x="535.0" y="714.0" type="line"/>
      <point x="535.0" y="404.0" type="line"/>
      <point x="575.0" y="397.0" type="line"/>
      <point x="568.667" y="457.0"/>
      <point x="476.0" y="497.0"/>
      <point x="375.0" y="497.0" type="curve" smooth="yes"/>
      <point x="224.0" y="497.0"/>
      <point x="130.0" y="434.0"/>
      <point x="130.0" y="331.0" type="curve" smooth="yes"/>
      <point x="130.0" y="217.0"/>
      <point x="222.0" y="146.0"/>
    </contour>
    <contour>
      <point x="141.0" y="-20.0" type="line"/>
      <point x="750.0" y="-20.0" type="line"/>
      <point x="750.0" y="106.0" type="line"/>
      <point x="141.0" y="106.0" type="line"/>
    </contour>
    <contour>
      <point x="426.0" y="293.0" type="curve" smooth="yes"/>
      <point x="370.0" y="293.0"/>
      <point x="341.0" y="306.0"/>
      <point x="341.0" y="331.0" type="curve" smooth="yes"/>
      <point x="341.0" y="358.0"/>
      <point x="370.0" y="371.0"/>
      <point x="426.0" y="371.0" type="curve" smooth="yes"/>
      <point x="502.0" y="371.0"/>
      <point x="540.0" y="358.0"/>
      <point x="540.0" y="331.0" type="curve" smooth="yes"/>
      <point x="540.0" y="306.0"/>
      <point x="502.0" y="293.0"/>
    </contour>
    <contour>
      <point x="333.0" y="542.0" type="line"/>
      <point x="796.0" y="542.0" type="line"/>
      <point x="796.0" y="655.0" type="line"/>
      <point x="333.0" y="655.0" type="line"/>
    </contour>
  </outline>
</glyph>
<glyph name="cedi" format="2">
  <advance width="1007"/>
  <unicode hex="20B5"/>
  <anchor x="563.0" y="0" name="bottom"/>
  <anchor x="568.0" y="700.0" name="top"/>
  <outline>
    <contour>
      <point x="486.0" y="-100.0" type="line"/>
      <point x="643.0" y="-100.0" type="line"/>
      <point x="643.0" y="7.0" type="line"/>
      <point x="616.0" y="45.0" type="line"/>
      <point x="616.0" y="637.0" type="line"/>
      <point x="643.0" y="692.0" type="line"/>
      <point x="643.0" y="797.0" type="line"/>
      <point x="486.0" y="797.0" type="line"/>
      <point x="486.0" y="693.0" type="line"/>
      <point x="526.0" y="637.0" type="line"/>
      <point x="526.0" y="46.0" type="line"/>
      <point x="486.0" y="8.0" type="line"/>
    </contour>
    <component base="C"/>
  </outline>
</glyph>
<glyph name="divisionslash" format="2">
  <advance width="828"/>
  <unicode hex="2215"/>
  <outline>
    <contour>
      <point x="92.0" y="-107.0" type="line"/>
      <point x="290.0" y="-107.0" type="line"/>
      <point x="710.0" y="756.0" type="line"/>
      <point x="507.0" y="756.0" type="line"/>
    </contour>
  </outline>
</glyph>
<glyph name="radical" format="2">
  <advance width="1139"/>
  <unicode hex="221A"/>
  <outline>
    <contour>
      <point x="348.0" y="-263.0" type="line"/>
      <point x="536.0" y="-263.0" type="line"/>
      <point x="903.0" y="579.0" type="line"/>
      <point x="777.0" y="463.0" type="line"/>
      <point x="1109.0" y="463.0" type="line"/>
      <point x="1109.0" y="700.0" type="line"/>
      <point x="723.0" y="700.0" type="line"/>
      <point x="384.0" y="-103.0" type="line"/>
      <point x="476.0" y="-90.0" type="line"/>
      <point x="294.0" y="338.0" type="line"/>
      <point x="65.0" y="338.0" type="line"/>
    </contour>
  </outline>
</glyph>
<glyph name="brevecomb_acutecomb.case" format="2">
  <anchor x="250.0" y="700.0" name="_top"/>
  <anchor x="250.0" y="900.0" name="top"/>
  <outline>
    <contour>
      <point x="250.0" y="740.0" type="curve" smooth="yes"/>
      <point x="347.0" y="740.0"/>
      <point x="422.0" y="795.0"/>
      <point x="442.0" y="889.0" type="curve"/>
      <point x="325.0" y="901.0" type="line"/>
      <point x="310.0" y="860.0"/>
      <point x="278.0" y="851.0"/>
      <point x="250.0" y="851.0" type="curve" smooth="yes"/>
      <point x="222.0" y="851.0"/>
      <point x="190.0" y="860.0"/>
      <point x="175.0" y="901.0" type="curve"/>
      <point x="58.0" y="889.0" type="line"/>
      <point x="78.0" y="795.0"/>
      <point x="153.0" y="740.0"/>
    </contour>
    <contour>
      <point x="261.0" y="891.0" type="line"/>
      <point x="403.0" y="1041.0" type="line"/>
      <point x="293.0" y="1120.0" type="line"/>
      <point x="189.0" y="942.0" type="line"/>
    </contour>
  </outline>
</glyph>
<glyph name="brevecomb_tildecomb" format="2">
  <anchor x="251.0" y="525.0" name="_top"/>
  <anchor x="251.0" y="810.0" name="top"/>
  <outline>
    <contour>
      <point x="251.0" y="587.0" type="curve" smooth="yes"/>
      <point x="349.0" y="587.0"/>
      <point x="424.0" y="642.0"/>
      <point x="443.0" y="736.0" type="curve"/>
      <point x="326.0" y="748.0" type="line"/>
      <point x="311.0" y="707.0"/>
      <point x="279.0" y="698.0"/>
      <point x="251.0" y="698.0" type="curve" smooth="yes"/>
      <point x="223.0" y="698.0"/>
      <point x="191.0" y="707.0"/>
      <point x="176.0" y="748.0" type="curve"/>
      <point x="59.0" y="736.0" type="line"/>
      <point x="79.0" y="641.0"/>
      <point x="154.0" y="587.0"/>
    </contour>
    <contour>
      <point x="331.0" y="830.0" type="curve" smooth="yes"/>
      <point x="399.0" y="830.0"/>
      <point x="446.0" y="896.0"/>
      <point x="446.0" y="965.0" type="curve"/>
      <point x="341.0" y="980.0" type="line"/>
      <point x="339.0" y="958.0"/>
      <point x="322.0" y="945.0"/>
      <point x="304.0" y="945.0" type="curve" smooth="yes"/>
      <point x="287.0" y="945.0"/>
      <point x="272.0" y="951.0"/>
      <point x="250.0" y="960.0" type="curve" smooth="yes"/>
      <point x="220.0" y="973.0"/>
      <point x="193.0" y="976.0"/>
      <point x="173.0" y="976.0" type="curve" smooth="yes"/>
      <point x="99.0" y="976.0"/>
      <point x="54.0" y="917.0"/>
      <point x="54.0" y="841.0" type="curve"/>
      <point x="159.0" y="827.0" type="line"/>
      <point x="161.0" y="851.0"/>
      <point x="179.0" y="862.0"/>
      <point x="199.0" y="862.0" type="curve" smooth="yes"/>
      <point x="208.0" y="862.0"/>
      <point x="224.0" y="858.0"/>
      <point x="248.0" y="848.0" type="curve" smooth="yes"/>
      <point x="284.0" y="833.0"/>
      <point x="311.0" y="830.0"/>
    </contour>
  </outline>
</glyph>
<glyph name="caroncomb.case" format="2">
  <anchor x="250.0" y="700.0" name="_top"/>
  <anchor x="250.0" y="920.0" name="top"/>
  <outline>
    <contour>
      <point x="199.0" y="753.0" type="line"/>
      <point x="301.0" y="753.0" type="line"/>
      <point x="446.0" y="864.0" type="line"/>
      <point x="388.0" y="937.0" type="line"/>
      <point x="235.0" y="861.0" type="line"/>
      <point x="265.0" y="861.0" type="line"/>
      <point x="112.0" y="937.0" type="line"/>
      <point x="54.0" y="864.0" type="line"/>
    </contour>
  </outline>
</glyph>
<glyph name="cedillacomb.case" format="2">
  <anchor x="252.0" y="0" name="_bottom"/>
  <anchor x="252.0" y="-247.0" name="bottom"/>
  <outline>
    <contour>
      <point x="147.0" y="-247.0" type="line"/>
      <point x="238.0" y="-248.0"/>
      <point x="367.0" y="-234.0"/>
      <point x="367.0" y="-139.0" type="curve" smooth="yes"/>
      <point x="367.0" y="-79.0"/>
      <point x="320.0" y="-43.0"/>
      <point x="261.0" y="-40.0" type="curve"/>
      <point x="310.0" y="24.0" type="line"/>
      <point x="211.0" y="24.0" type="line"/>
      <point x="147.0" y="-70.0" type="line"/>
      <point x="165.0" y="-96.0" type="line"/>
      <point x="205.0" y="-96.0"/>
      <point x="231.0" y="-109.0"/>
      <point x="231.0" y="-132.0" type="curve" smooth="yes"/>
      <point x="231.0" y="-167.0"/>
      <point x="183.0" y="-160.0"/>
      <point x="136.0" y="-161.0" type="curve"/>
    </contour>
  </outline>
</glyph>
<glyph name="dieresiscomb_acutecomb" format="2">
  <anchor x="249.0" y="525.0" name="_top"/>
  <anchor x="250.0" y="810.0" name="top"/>
  <outline>
    <contour>
      <point x="114.0" y="588.0" type="curve" smooth="yes"/>
      <point x="175.0" y="588.0"/>
      <point x="214.0" y="629.0"/>
      <point x="214.0" y="688.0" type="curve" smooth="yes"/>
      <point x="214.0" y="753.0"/>
      <point x="178.0" y="788.0"/>
      <point x="114.0" y="788.0" type="curve" smooth="yes"/>
      <point x="53.0" y="788.0"/>
      <point x="14.0" y="747.0"/>
      <point x="14.0" y="688.0" type="curve" smooth="yes"/>
      <point x="14.0" y="624.0"/>
      <point x="50.0" y="588.0"/>
    </contour>
    <contour>
      <point x="385.0" y="588.0" type="curve" smooth="yes"/>
      <point x="446.0" y="588.0"/>
      <point x="485.0" y="629.0"/>
      <point x="485.0" y="688.0" type="curve" smooth="yes"/>
      <point x="485.0" y="753.0"/>
      <point x="449.0" y="788.0"/>
      <point x="385.0" y="788.0" type="curve" smooth="yes"/>
      <point x="324.0" y="788.0"/>
      <point x="285.0" y="747.0"/>
      <point x="285.0" y="688.0" type="curve" smooth="yes"/>
      <point x="285.0" y="624.0"/>
      <point x="321.0" y="588.0"/>
    </contour>
    <contour>
      <point x="267.0" y="788.0" type="line"/>
      <point x="402.0" y="937.0" type="line"/>
      <point x="283.0" y="1021.0" type="line"/>
      <point x="188.0" y="838.0" type="line"/>
    </contour>
  </outline>
</glyph>
